<svg width="2488" height="858" viewBox="0 0 2488 858" fill="none" xmlns="http://www.w3.org/2000/svg">
<g clip-path="url(#clip0_48_2)">
<path fill-rule="evenodd" clip-rule="evenodd" d="M283.636 836.557C310.973 863.893 355.295 863.893 382.631 836.557L651.332 567.856C670.858 548.33 670.858 516.672 651.332 497.145L637.19 483.003L361.418 758.774C345.797 774.395 320.471 774.395 304.85 758.774L29.0782 483.003L14.9357 497.145C-4.59047 516.672 -4.59046 548.33 14.9357 567.856L283.636 836.557Z" fill="white"/>
<path fill-rule="evenodd" clip-rule="evenodd" d="M28.3705 284.306C1.03382 311.643 1.03382 355.964 28.3705 383.301L297.071 652.002C316.597 671.528 348.256 671.528 367.782 652.002L381.924 637.859L106.153 362.088C90.5318 346.467 90.5318 321.141 106.153 305.52L381.924 29.7481L367.782 15.6057C348.256 -3.92055 316.597 -3.92054 297.071 15.6057L28.3705 284.306Z" fill="white"/>
<path d="M506.375 521.894C467.322 560.947 404.006 560.947 364.953 521.894L205.95 362.891C190.329 347.27 190.329 321.943 205.95 306.322L364.953 147.319C404.006 108.266 467.322 108.266 506.375 147.319L665.378 306.322C680.999 321.943 680.999 347.27 665.378 362.891L506.375 521.894Z" fill="white"/>
<mask id="path-4-outside-1_48_2" maskUnits="userSpaceOnUse" x="878" y="216" width="1608" height="383" fill="black">
<rect fill="white" x="878" y="216" width="1608" height="383"/>
<path d="M988 592.8C968.267 592.8 950.533 588.4 934.8 579.6C919.067 570.8 906.667 558.8 897.6 543.6C888.533 528.4 884 511.334 884 492.4C884 473.2 888.533 456 897.6 440.8C906.667 425.6 919.067 413.6 934.8 404.8C950.8 395.734 968.533 391.2 988 391.2C1003.2 391.2 1017.2 394 1030 399.6C1034.31 401.486 1038.42 403.644 1042.34 406.074C1055.39 414.169 1054.78 432.123 1043.98 443.045C1036.17 450.949 1023.29 450.242 1013.17 445.648C1012.52 445.354 1011.87 445.071 1011.2 444.8C1004.27 441.867 996.533 440.4 988 440.4C978.4 440.4 969.733 442.667 962 447.2C954.533 451.467 948.533 457.467 944 465.2C939.733 472.667 937.6 481.6 937.6 492C937.6 502.134 939.733 511.2 944 519.2C948.533 526.934 954.533 533.067 962 537.6C969.733 541.867 978.4 544 988 544C996.8 544 1004.67 542.534 1011.6 539.6C1012.38 539.256 1013.14 538.896 1013.89 538.521C1023.81 533.558 1036.68 532.68 1044.52 540.524C1055.4 551.401 1055.94 569.421 1042.91 577.586C1038.78 580.168 1034.48 582.44 1030 584.4C1017.2 590 1003.2 592.8 988 592.8Z"/>
<path d="M1103.68 514.8C1089.09 514.8 1077.27 502.98 1077.27 488.4V348C1077.27 333.42 1089.09 321.6 1103.68 321.6C1118.26 321.6 1130.08 333.42 1130.08 348V488.4C1130.08 502.98 1118.26 514.8 1103.68 514.8ZM1103.67 290.4C1095.14 290.4 1088.07 287.6 1082.47 282C1076.87 276.133 1074.07 268.933 1074.07 260.4C1074.07 252.133 1076.87 245.067 1082.47 239.2C1088.07 233.333 1095.14 230.4 1103.67 230.4C1112.47 230.4 1119.54 233.333 1124.88 239.2C1130.48 245.067 1133.28 252.133 1133.28 260.4C1133.28 268.933 1130.48 276.133 1124.88 282C1119.54 287.6 1112.47 290.4 1103.67 290.4Z"/>
<path d="M1219.49 584.4C1205.02 584.4 1193.29 572.67 1193.29 558.2V337C1193.29 322.53 1205.02 310.8 1219.49 310.8C1233.96 310.8 1245.69 322.53 1245.69 337V558.2C1245.69 572.67 1233.96 584.4 1219.49 584.4ZM1171.09 437.2C1158.39 437.2 1148.09 426.903 1148.09 414.2C1148.09 401.498 1158.39 391.2 1171.09 391.2H1267.89C1280.6 391.2 1290.89 401.498 1290.89 414.2C1290.89 426.903 1280.6 437.2 1267.89 437.2H1171.09Z"/>
<path d="M1406.48 514.8C1387.01 514.8 1369.41 510.4 1353.68 501.6C1338.21 492.534 1325.81 480.4 1316.48 465.2C1307.41 449.734 1302.88 432.534 1302.88 413.6C1302.88 394.667 1307.41 377.734 1316.48 362.8C1325.54 347.6 1337.94 335.6 1353.68 326.8C1369.41 317.734 1386.88 313.2 1406.08 313.2C1425.81 313.2 1443.41 317.734 1458.88 326.8C1474.61 335.6 1487.01 347.6 1496.08 362.8C1505.14 377.734 1509.67 394.667 1509.67 413.6C1509.67 432.534 1505.14 449.734 1496.08 465.2C1487.01 480.4 1474.61 492.534 1458.88 501.6C1443.41 510.4 1425.94 514.8 1406.48 514.8ZM1406.08 466C1415.94 466 1424.61 463.867 1432.08 459.6C1439.81 455.067 1445.67 448.934 1449.67 441.2C1453.94 433.2 1456.08 424.134 1456.08 414C1456.08 403.867 1453.94 394.934 1449.67 387.2C1445.41 379.467 1439.54 373.467 1432.08 369.2C1424.61 364.667 1415.94 362.4 1406.08 362.4C1396.48 362.4 1387.94 364.667 1380.47 369.2C1373.01 373.467 1367.14 379.467 1362.88 387.2C1358.61 394.934 1356.48 403.867 1356.48 414C1356.48 424.134 1358.61 433.2 1362.88 441.2C1367.14 448.934 1373.01 455.067 1380.47 459.6C1387.94 463.867 1396.48 466 1406.08 466Z"/>
<path d="M1740.72 584.4C1729.3 584.4 1718.96 577.66 1714.36 567.215L1651.02 423.594C1644.29 408.338 1655.46 391.2 1672.14 391.2C1685.51 391.2 1697.5 399.437 1702.3 411.919L1755.53 550.4H1727.13L1781 411.177C1785.66 399.137 1797.24 391.2 1810.15 391.2C1826.27 391.2 1837.07 407.745 1830.6 422.498L1767.1 567.169C1762.5 577.639 1752.15 584.4 1740.72 584.4Z"/>
<path d="M1875.1 506.4C1860.52 506.4 1848.7 494.58 1848.7 480V339.6C1848.7 325.02 1860.52 313.2 1875.1 313.2C1889.68 313.2 1901.5 325.02 1901.5 339.6V480C1901.5 494.58 1889.68 506.4 1875.1 506.4ZM1875.1 282C1866.57 282 1859.5 279.2 1853.9 273.6C1848.3 267.733 1845.5 260.533 1845.5 252C1845.5 243.733 1848.3 236.667 1853.9 230.8C1859.5 224.933 1866.57 222 1875.1 222C1883.9 222 1890.97 224.933 1896.3 230.8C1901.9 236.667 1904.7 243.733 1904.7 252C1904.7 260.533 1901.9 267.733 1896.3 273.6C1890.97 279.2 1883.9 282 1875.1 282Z"/>
<path d="M1984.73 584.4C1970.26 584.4 1958.53 572.67 1958.53 558.2V337C1958.53 322.53 1970.26 310.8 1984.73 310.8C1999.2 310.8 2010.93 322.53 2010.93 337V558.2C2010.93 572.67 1999.2 584.4 1984.73 584.4ZM1936.33 437.2C1923.63 437.2 1913.33 426.903 1913.33 414.2C1913.33 401.498 1923.63 391.2 1936.33 391.2H2033.13C2045.83 391.2 2056.13 401.498 2056.13 414.2C2056.13 426.903 2045.83 437.2 2033.13 437.2H1936.33Z"/>
<path d="M2161.71 514.8C2144.11 514.8 2128.24 510.4 2114.11 501.6C2099.98 492.8 2088.91 480.8 2080.91 465.6C2072.91 450.4 2068.91 433.334 2068.91 414.4C2068.91 395.2 2072.91 378 2080.91 362.8C2088.91 347.6 2099.98 335.6 2114.11 326.8C2128.24 318 2144.11 313.6 2161.71 313.6C2175.58 313.6 2187.98 316.4 2198.91 322C2209.84 327.6 2218.51 335.467 2224.91 345.6C2231.58 355.467 2235.18 366.667 2235.71 379.2V448.8C2235.18 461.6 2231.58 472.934 2224.91 482.8C2218.51 492.667 2209.84 500.534 2198.91 506.4C2187.98 512 2175.58 514.8 2161.71 514.8ZM2171.31 466.4C2185.98 466.4 2197.84 461.6 2206.91 452C2215.98 442.134 2220.51 429.467 2220.51 414C2220.51 403.867 2218.38 394.934 2214.11 387.2C2210.11 379.2 2204.38 373.067 2196.91 368.8C2189.71 364.267 2181.18 362 2171.31 362C2161.71 362 2153.18 364.267 2145.71 368.8C2138.51 373.067 2132.78 379.2 2128.51 387.2C2124.51 394.934 2122.51 403.867 2122.51 414C2122.51 424.4 2124.51 433.6 2128.51 441.6C2132.78 449.334 2138.51 455.467 2145.71 460C2153.18 464.267 2161.71 466.4 2171.31 466.4ZM2243.71 510.8C2229.35 510.8 2217.71 499.16 2217.71 484.8V458.8L2226.11 411.6L2217.71 365.2V343.6C2217.71 329.241 2229.35 317.6 2243.71 317.6C2258.07 317.6 2269.71 329.241 2269.71 343.6V484.8C2269.71 499.16 2258.07 510.8 2243.71 510.8Z"/>
<path d="M2387.9 592.8C2367.63 592.8 2349.63 588.534 2333.9 580C2318.17 571.2 2305.63 559.2 2296.3 544C2287.23 528.8 2282.7 511.467 2282.7 492C2282.7 472.8 2287.1 455.734 2295.9 440.8C2304.97 425.6 2317.23 413.6 2332.7 404.8C2348.17 395.734 2365.37 391.2 2384.3 391.2C2402.97 391.2 2419.37 395.467 2433.5 404C2447.9 412.267 2459.1 423.734 2467.1 438.4C2475.37 452.8 2479.5 469.2 2479.5 487.6C2479.44 483.744 2479.56 491.101 2479.5 487.6C2477.24 500.88 2467.19 510.424 2453.72 510.457L2314.3 510.8V471.6L2383.3 471.4L2452.3 471.2L2431.1 487.6C2430.57 476.134 2428.43 466.534 2424.7 458.8C2421.23 451.067 2416.03 445.2 2409.1 441.2C2402.43 436.934 2394.17 434.8 2384.3 434.8C2373.9 434.8 2364.83 437.2 2357.1 442C2349.37 446.534 2343.37 453.067 2339.1 461.6C2335.1 469.867 2333.1 479.734 2333.1 491.2C2333.1 502.934 2335.23 513.2 2339.5 522C2344.03 530.534 2350.43 537.2 2358.7 542C2366.97 546.534 2376.57 548.8 2387.5 548.8C2397.37 548.8 2406.3 547.2 2414.3 544C2416.47 543.059 2418.56 542 2420.58 540.823C2429.43 535.65 2441.24 534.936 2448.49 542.188C2458.32 552.019 2459.13 568.207 2447.55 575.903C2442.58 579.209 2437.23 582.041 2431.5 584.4C2418.17 590 2403.63 592.8 2387.9 592.8Z"/>
</mask>
<path d="M988 592.8C968.267 592.8 950.533 588.4 934.8 579.6C919.067 570.8 906.667 558.8 897.6 543.6C888.533 528.4 884 511.334 884 492.4C884 473.2 888.533 456 897.6 440.8C906.667 425.6 919.067 413.6 934.8 404.8C950.8 395.734 968.533 391.2 988 391.2C1003.2 391.2 1017.2 394 1030 399.6C1034.31 401.486 1038.42 403.644 1042.34 406.074C1055.39 414.169 1054.78 432.123 1043.98 443.045C1036.17 450.949 1023.29 450.242 1013.17 445.648C1012.52 445.354 1011.87 445.071 1011.2 444.8C1004.27 441.867 996.533 440.4 988 440.4C978.4 440.4 969.733 442.667 962 447.2C954.533 451.467 948.533 457.467 944 465.2C939.733 472.667 937.6 481.6 937.6 492C937.6 502.134 939.733 511.2 944 519.2C948.533 526.934 954.533 533.067 962 537.6C969.733 541.867 978.4 544 988 544C996.8 544 1004.67 542.534 1011.6 539.6C1012.38 539.256 1013.14 538.896 1013.89 538.521C1023.81 533.558 1036.68 532.68 1044.52 540.524C1055.4 551.401 1055.94 569.421 1042.91 577.586C1038.78 580.168 1034.48 582.44 1030 584.4C1017.2 590 1003.2 592.8 988 592.8Z" fill="white"/>
<path d="M1103.68 514.8C1089.09 514.8 1077.27 502.98 1077.27 488.4V348C1077.27 333.42 1089.09 321.6 1103.68 321.6C1118.26 321.6 1130.08 333.42 1130.08 348V488.4C1130.08 502.98 1118.26 514.8 1103.68 514.8ZM1103.67 290.4C1095.14 290.4 1088.07 287.6 1082.47 282C1076.87 276.133 1074.07 268.933 1074.07 260.4C1074.07 252.133 1076.87 245.067 1082.47 239.2C1088.07 233.333 1095.14 230.4 1103.67 230.4C1112.47 230.4 1119.54 233.333 1124.88 239.2C1130.48 245.067 1133.28 252.133 1133.28 260.4C1133.28 268.933 1130.48 276.133 1124.88 282C1119.54 287.6 1112.47 290.4 1103.67 290.4Z" fill="white"/>
<path d="M1219.49 584.4C1205.02 584.4 1193.29 572.67 1193.29 558.2V337C1193.29 322.53 1205.02 310.8 1219.49 310.8C1233.96 310.8 1245.69 322.53 1245.69 337V558.2C1245.69 572.67 1233.96 584.4 1219.49 584.4ZM1171.09 437.2C1158.39 437.2 1148.09 426.903 1148.09 414.2C1148.09 401.498 1158.39 391.2 1171.09 391.2H1267.89C1280.6 391.2 1290.89 401.498 1290.89 414.2C1290.89 426.903 1280.6 437.2 1267.89 437.2H1171.09Z" fill="white"/>
<path d="M1406.48 514.8C1387.01 514.8 1369.41 510.4 1353.68 501.6C1338.21 492.534 1325.81 480.4 1316.48 465.2C1307.41 449.734 1302.88 432.534 1302.88 413.6C1302.88 394.667 1307.41 377.734 1316.48 362.8C1325.54 347.6 1337.94 335.6 1353.68 326.8C1369.41 317.734 1386.88 313.2 1406.08 313.2C1425.81 313.2 1443.41 317.734 1458.88 326.8C1474.61 335.6 1487.01 347.6 1496.08 362.8C1505.14 377.734 1509.67 394.667 1509.67 413.6C1509.67 432.534 1505.14 449.734 1496.08 465.2C1487.01 480.4 1474.61 492.534 1458.88 501.6C1443.41 510.4 1425.94 514.8 1406.48 514.8ZM1406.08 466C1415.94 466 1424.61 463.867 1432.08 459.6C1439.81 455.067 1445.67 448.934 1449.67 441.2C1453.94 433.2 1456.08 424.134 1456.08 414C1456.08 403.867 1453.94 394.934 1449.67 387.2C1445.41 379.467 1439.54 373.467 1432.08 369.2C1424.61 364.667 1415.94 362.4 1406.08 362.4C1396.48 362.4 1387.94 364.667 1380.47 369.2C1373.01 373.467 1367.14 379.467 1362.88 387.2C1358.61 394.934 1356.48 403.867 1356.48 414C1356.48 424.134 1358.61 433.2 1362.88 441.2C1367.14 448.934 1373.01 455.067 1380.47 459.6C1387.94 463.867 1396.48 466 1406.08 466Z" fill="white"/>
<path d="M1740.72 584.4C1729.3 584.4 1718.96 577.66 1714.36 567.215L1651.02 423.594C1644.29 408.338 1655.46 391.2 1672.14 391.2C1685.51 391.2 1697.5 399.437 1702.3 411.919L1755.53 550.4H1727.13L1781 411.177C1785.66 399.137 1797.24 391.2 1810.15 391.2C1826.27 391.2 1837.07 407.745 1830.6 422.498L1767.1 567.169C1762.5 577.639 1752.15 584.4 1740.72 584.4Z" fill="white"/>
<path d="M1875.1 506.4C1860.52 506.4 1848.7 494.58 1848.7 480V339.6C1848.7 325.02 1860.52 313.2 1875.1 313.2C1889.68 313.2 1901.5 325.02 1901.5 339.6V480C1901.5 494.58 1889.68 506.4 1875.1 506.4ZM1875.1 282C1866.57 282 1859.5 279.2 1853.9 273.6C1848.3 267.733 1845.5 260.533 1845.5 252C1845.5 243.733 1848.3 236.667 1853.9 230.8C1859.5 224.933 1866.57 222 1875.1 222C1883.9 222 1890.97 224.933 1896.3 230.8C1901.9 236.667 1904.7 243.733 1904.7 252C1904.7 260.533 1901.9 267.733 1896.3 273.6C1890.97 279.2 1883.9 282 1875.1 282Z" fill="white"/>
<path d="M1984.73 584.4C1970.26 584.4 1958.53 572.67 1958.53 558.2V337C1958.53 322.53 1970.26 310.8 1984.73 310.8C1999.2 310.8 2010.93 322.53 2010.93 337V558.2C2010.93 572.67 1999.2 584.4 1984.73 584.4ZM1936.33 437.2C1923.63 437.2 1913.33 426.903 1913.33 414.2C1913.33 401.498 1923.63 391.2 1936.33 391.2H2033.13C2045.83 391.2 2056.13 401.498 2056.13 414.2C2056.13 426.903 2045.83 437.2 2033.13 437.2H1936.33Z" fill="white"/>
<path d="M2161.71 514.8C2144.11 514.8 2128.24 510.4 2114.11 501.6C2099.98 492.8 2088.91 480.8 2080.91 465.6C2072.91 450.4 2068.91 433.334 2068.91 414.4C2068.91 395.2 2072.91 378 2080.91 362.8C2088.91 347.6 2099.98 335.6 2114.11 326.8C2128.24 318 2144.11 313.6 2161.71 313.6C2175.58 313.6 2187.98 316.4 2198.91 322C2209.84 327.6 2218.51 335.467 2224.91 345.6C2231.58 355.467 2235.18 366.667 2235.71 379.2V448.8C2235.18 461.6 2231.58 472.934 2224.91 482.8C2218.51 492.667 2209.84 500.534 2198.91 506.4C2187.98 512 2175.58 514.8 2161.71 514.8ZM2171.31 466.4C2185.98 466.4 2197.84 461.6 2206.91 452C2215.98 442.134 2220.51 429.467 2220.51 414C2220.51 403.867 2218.38 394.934 2214.11 387.2C2210.11 379.2 2204.38 373.067 2196.91 368.8C2189.71 364.267 2181.18 362 2171.31 362C2161.71 362 2153.18 364.267 2145.71 368.8C2138.51 373.067 2132.78 379.2 2128.51 387.2C2124.51 394.934 2122.51 403.867 2122.51 414C2122.51 424.4 2124.51 433.6 2128.51 441.6C2132.78 449.334 2138.51 455.467 2145.71 460C2153.18 464.267 2161.71 466.4 2171.31 466.4ZM2243.71 510.8C2229.35 510.8 2217.71 499.16 2217.71 484.8V458.8L2226.11 411.6L2217.71 365.2V343.6C2217.71 329.241 2229.35 317.6 2243.71 317.6C2258.07 317.6 2269.71 329.241 2269.71 343.6V484.8C2269.71 499.16 2258.07 510.8 2243.71 510.8Z" fill="white"/>
<path d="M2387.9 592.8C2367.63 592.8 2349.63 588.534 2333.9 580C2318.17 571.2 2305.63 559.2 2296.3 544C2287.23 528.8 2282.7 511.467 2282.7 492C2282.7 472.8 2287.1 455.734 2295.9 440.8C2304.97 425.6 2317.23 413.6 2332.7 404.8C2348.17 395.734 2365.37 391.2 2384.3 391.2C2402.97 391.2 2419.37 395.467 2433.5 404C2447.9 412.267 2459.1 423.734 2467.1 438.4C2475.37 452.8 2479.5 469.2 2479.5 487.6C2479.44 483.744 2479.56 491.101 2479.5 487.6C2477.24 500.88 2467.19 510.424 2453.72 510.457L2314.3 510.8V471.6L2383.3 471.4L2452.3 471.2L2431.1 487.6C2430.57 476.134 2428.43 466.534 2424.7 458.8C2421.23 451.067 2416.03 445.2 2409.1 441.2C2402.43 436.934 2394.17 434.8 2384.3 434.8C2373.9 434.8 2364.83 437.2 2357.1 442C2349.37 446.534 2343.37 453.067 2339.1 461.6C2335.1 469.867 2333.1 479.734 2333.1 491.2C2333.1 502.934 2335.23 513.2 2339.5 522C2344.03 530.534 2350.43 537.2 2358.7 542C2366.97 546.534 2376.57 548.8 2387.5 548.8C2397.37 548.8 2406.3 547.2 2414.3 544C2416.47 543.059 2418.56 542 2420.58 540.823C2429.43 535.65 2441.24 534.936 2448.49 542.188C2458.32 552.019 2459.13 568.207 2447.55 575.903C2442.58 579.209 2437.23 582.041 2431.5 584.4C2418.17 590 2403.63 592.8 2387.9 592.8Z" fill="white"/>
<path d="M934.8 579.6L937.729 574.364L934.8 579.6ZM897.6 543.6L902.753 540.527H902.753L897.6 543.6ZM897.6 440.8L902.753 443.874H902.753L897.6 440.8ZM934.8 404.8L937.729 410.037L937.744 410.029L937.758 410.021L934.8 404.8ZM1030 399.6L1032.4 394.103L1030 399.6ZM1011.2 444.8L1008.86 450.326L1008.9 450.342L1008.94 450.357L1011.2 444.8ZM962 447.2L964.977 452.41L965.006 452.393L965.034 452.377L962 447.2ZM944 465.2L938.824 462.166L938.807 462.195L938.791 462.224L944 465.2ZM944 519.2L938.706 522.024L938.763 522.131L938.824 522.235L944 519.2ZM962 537.6L958.886 542.729L958.993 542.794L959.102 542.854L962 537.6ZM1011.6 539.6L1013.94 545.126L1013.99 545.105L1014.04 545.083L1011.6 539.6ZM1030 584.4L1032.4 589.897L1030 584.4ZM1082.47 282L1078.13 286.143L1078.18 286.193L1078.23 286.243L1082.47 282ZM1082.47 239.2L1086.82 243.343V243.343L1082.47 239.2ZM1124.88 239.2L1120.44 243.236L1120.48 243.29L1120.53 243.343L1124.88 239.2ZM1124.88 282L1120.53 277.857L1120.53 277.862L1124.88 282ZM1353.68 501.6L1350.64 506.776L1350.69 506.807L1350.75 506.837L1353.68 501.6ZM1316.48 465.2L1311.3 468.235L1311.33 468.287L1311.36 468.34L1316.48 465.2ZM1316.48 362.8L1321.6 365.914L1321.62 365.894L1321.63 365.874L1316.48 362.8ZM1353.68 326.8L1356.6 332.037L1356.64 332.018L1356.67 331.999L1353.68 326.8ZM1458.88 326.8L1455.84 331.976L1455.89 332.007L1455.95 332.037L1458.88 326.8ZM1496.08 362.8L1490.92 365.874L1490.93 365.894L1490.95 365.914L1496.08 362.8ZM1496.08 465.2L1501.23 468.274L1501.24 468.254L1501.25 468.235L1496.08 465.2ZM1458.88 501.6L1461.84 506.815L1461.86 506.807L1461.87 506.799L1458.88 501.6ZM1432.08 459.6L1435.05 464.81L1435.08 464.793L1435.11 464.776L1432.08 459.6ZM1449.67 441.2L1444.38 438.377L1444.36 438.41L1444.35 438.444L1449.67 441.2ZM1432.08 369.2L1428.96 374.329L1429.03 374.37L1429.1 374.41L1432.08 369.2ZM1380.47 369.2L1383.45 374.41L1383.52 374.37L1383.59 374.329L1380.47 369.2ZM1362.88 387.2L1368.13 390.099L1362.88 387.2ZM1362.88 441.2L1357.58 444.024L1357.6 444.061L1357.62 444.099L1362.88 441.2ZM1380.47 459.6L1377.36 464.729L1377.43 464.77L1377.5 464.81L1380.47 459.6ZM1755.53 550.4V556.4H1764.27L1761.13 548.247L1755.53 550.4ZM1727.13 550.4L1721.54 548.235L1718.38 556.4H1727.13V550.4ZM1853.9 273.6L1849.56 277.743L1849.61 277.793L1849.66 277.843L1853.9 273.6ZM1853.9 230.8L1858.24 234.943V234.943L1853.9 230.8ZM1896.3 230.8L1891.86 234.836L1891.91 234.89L1891.96 234.943L1896.3 230.8ZM1896.3 273.6L1891.96 269.457L1891.96 269.462L1896.3 273.6ZM2114.11 501.6L2110.94 506.694L2114.11 501.6ZM2080.91 465.6L2086.22 462.806L2080.91 465.6ZM2080.91 362.8L2086.22 365.595H2086.22L2080.91 362.8ZM2114.11 326.8L2117.28 331.894L2114.11 326.8ZM2224.91 345.6L2219.84 348.804L2219.89 348.883L2219.94 348.959L2224.91 345.6ZM2235.71 379.2H2241.71V379.073L2241.7 378.945L2235.71 379.2ZM2235.71 448.8L2241.7 449.05L2241.71 448.925V448.8H2235.71ZM2224.91 482.8L2219.94 479.441L2219.91 479.488L2219.88 479.535L2224.91 482.8ZM2198.91 506.4L2201.64 511.741L2201.7 511.714L2201.75 511.687L2198.91 506.4ZM2206.91 452L2211.27 456.12L2211.3 456.09L2211.33 456.06L2206.91 452ZM2214.11 387.2L2208.74 389.884L2208.8 389.992L2208.86 390.099L2214.11 387.2ZM2196.91 368.8L2193.71 373.878L2193.82 373.946L2193.93 374.01L2196.91 368.8ZM2145.71 368.8L2148.77 373.962L2148.8 373.946L2148.82 373.929L2145.71 368.8ZM2128.51 387.2L2123.22 384.377L2123.2 384.41L2123.18 384.444L2128.51 387.2ZM2128.51 441.6L2123.14 444.284L2123.2 444.392L2123.26 444.499L2128.51 441.6ZM2145.71 460L2142.51 465.078L2142.62 465.146L2142.73 465.21L2145.71 460ZM2217.71 458.8L2211.8 457.749L2211.71 458.271V458.8H2217.71ZM2226.11 411.6L2232.02 412.652L2232.21 411.591L2232.01 410.531L2226.11 411.6ZM2217.71 365.2H2211.71V365.739L2211.81 366.269L2217.71 365.2ZM2333.9 580L2330.97 585.237L2331.01 585.256L2331.04 585.274L2333.9 580ZM2296.3 544L2291.15 547.074L2291.17 547.107L2291.19 547.14L2296.3 544ZM2295.9 440.8L2290.75 437.727L2290.74 437.74L2290.73 437.754L2295.9 440.8ZM2332.7 404.8L2335.67 410.015L2335.7 409.996L2335.73 409.976L2332.7 404.8ZM2433.5 404L2430.4 409.137L2430.46 409.171L2430.51 409.204L2433.5 404ZM2467.1 438.4L2461.83 441.273L2461.86 441.331L2461.9 441.387L2467.1 438.4ZM2314.3 510.8H2308.3V516.815L2314.31 516.8L2314.3 510.8ZM2314.3 471.6L2314.28 465.6L2308.3 465.618V471.6H2314.3ZM2452.3 471.2L2455.97 475.946L2469.93 465.149L2452.28 465.2L2452.3 471.2ZM2431.1 487.6L2425.11 487.879L2425.64 499.408L2434.77 492.346L2431.1 487.6ZM2424.7 458.8L2419.22 461.255L2419.26 461.332L2419.3 461.409L2424.7 458.8ZM2409.1 441.2L2405.87 446.254L2405.98 446.328L2406.1 446.397L2409.1 441.2ZM2357.1 442L2360.13 447.176L2360.2 447.138L2360.26 447.098L2357.1 442ZM2339.1 461.6L2333.73 458.917L2333.72 458.952L2333.7 458.987L2339.1 461.6ZM2339.5 522L2334.1 524.618L2334.15 524.717L2334.2 524.815L2339.5 522ZM2358.7 542L2355.69 547.189L2355.75 547.226L2355.81 547.261L2358.7 542ZM2414.3 544L2416.53 549.571L2416.61 549.539L2416.69 549.506L2414.3 544ZM2431.5 584.4L2429.22 578.852L2429.2 578.86L2429.18 578.868L2431.5 584.4ZM2383.3 471.4L2383.28 465.4L2383.3 471.4ZM2447.55 575.903L2450.87 580.9L2447.55 575.903ZM1767.1 567.169L1772.59 569.581L1767.1 567.169ZM1830.6 422.498L1836.09 424.91L1830.6 422.498ZM1042.91 577.586L1039.72 572.501L1042.91 577.586ZM1651.02 423.594L1645.53 426.015L1651.02 423.594ZM2453.72 510.457L2453.71 504.457L2453.72 510.457ZM1781 411.177L1775.41 409.012L1781 411.177ZM2420.58 540.823L2417.55 535.642L2420.58 540.823ZM2448.49 542.188L2452.73 537.946L2448.49 542.188ZM1013.17 445.648L1015.65 440.184L1013.17 445.648ZM1714.36 567.215L1719.85 564.794L1714.36 567.215ZM1013.89 538.521L1011.2 533.155L1013.89 538.521ZM1044.52 540.524L1040.28 544.767L1044.52 540.524ZM1043.98 443.045L1039.72 438.828L1043.98 443.045ZM988 586.8C969.193 586.8 952.484 582.617 937.729 574.364L931.871 584.837C948.582 594.184 967.341 598.8 988 598.8V586.8ZM937.729 574.364C922.896 566.067 911.27 554.806 902.753 540.527L892.447 546.674C902.063 562.795 915.237 575.533 931.871 584.837L937.729 574.364ZM902.753 540.527C894.279 526.321 890 510.33 890 492.4H878C878 512.338 882.787 530.48 892.447 546.674L902.753 540.527ZM890 492.4C890 474.188 894.287 458.066 902.753 443.874L892.447 437.727C882.779 453.934 878 472.213 878 492.4H890ZM902.753 443.874C911.27 429.595 922.896 418.333 937.729 410.037L931.871 399.564C915.237 408.867 902.063 421.606 892.447 437.727L902.753 443.874ZM937.758 410.021C952.803 401.495 969.507 397.2 988 397.2V385.2C967.559 385.2 948.797 389.972 931.842 399.58L937.758 410.021ZM988 397.2C1002.45 397.2 1015.62 399.857 1027.6 405.097L1032.4 394.103C1018.78 388.143 1003.95 385.2 988 385.2V397.2ZM1027.6 405.097C1031.65 406.871 1035.51 408.896 1039.18 411.172L1045.5 400.975C1041.34 398.392 1036.97 396.101 1032.4 394.103L1027.6 405.097ZM1015.65 440.184C1014.93 439.858 1014.2 439.544 1013.46 439.244L1008.94 450.357C1009.53 450.599 1010.11 450.85 1010.69 451.111L1015.65 440.184ZM1013.54 439.275C1005.77 435.989 997.23 434.4 988 434.4V446.4C995.837 446.4 1002.76 447.745 1008.86 450.326L1013.54 439.275ZM988 434.4C977.412 434.4 967.685 436.913 958.966 442.024L965.034 452.377C971.782 448.421 979.388 446.4 988 446.4V434.4ZM959.023 441.991C950.606 446.8 943.864 453.568 938.824 462.166L949.176 468.235C953.203 461.366 958.46 456.134 964.977 452.41L959.023 441.991ZM938.791 462.224C933.907 470.769 931.6 480.774 931.6 492H943.6C943.6 482.427 945.559 474.565 949.209 468.177L938.791 462.224ZM931.6 492C931.6 503.001 933.923 513.057 938.706 522.024L949.294 516.377C945.543 509.344 943.6 501.267 943.6 492H931.6ZM938.824 522.235C943.847 530.803 950.546 537.666 958.886 542.729L965.114 532.472C958.521 528.469 953.22 523.065 949.176 516.166L938.824 522.235ZM959.102 542.854C967.798 547.652 977.477 550 988 550V538C979.323 538 971.668 536.082 964.898 532.347L959.102 542.854ZM988 550C997.469 550 1006.15 548.421 1013.94 545.126L1009.26 534.075C1003.18 536.647 996.131 538 988 538V550ZM1014.04 545.083C1014.89 544.702 1015.74 544.303 1016.57 543.887L1011.2 533.155C1010.54 533.489 1009.86 533.81 1009.16 534.118L1014.04 545.083ZM1039.72 572.501C1035.85 574.926 1031.81 577.06 1027.6 578.904L1032.4 589.897C1037.16 587.819 1041.72 585.41 1046.09 582.671L1039.72 572.501ZM1027.6 578.904C1015.62 584.143 1002.45 586.8 988 586.8V598.8C1003.95 598.8 1018.78 595.857 1032.4 589.897L1027.6 578.904ZM1083.27 488.4V348H1071.27V488.4H1083.27ZM1124.08 348V488.4H1136.08V348H1124.08ZM1103.67 284.4C1096.6 284.4 1091.1 282.139 1086.72 277.757L1078.23 286.243C1085.05 293.061 1093.69 296.4 1103.67 296.4V284.4ZM1086.82 277.857C1082.34 273.169 1080.07 267.479 1080.07 260.4H1068.07C1068.07 270.387 1071.41 279.097 1078.13 286.143L1086.82 277.857ZM1080.07 260.4C1080.07 253.643 1082.3 248.07 1086.82 243.343L1078.13 235.057C1071.45 242.064 1068.07 250.623 1068.07 260.4H1080.07ZM1086.82 243.343C1091.22 238.73 1096.69 236.4 1103.67 236.4V224.4C1093.6 224.4 1084.93 227.937 1078.13 235.057L1086.82 243.343ZM1103.67 236.4C1110.99 236.4 1116.37 238.765 1120.44 243.236L1129.31 235.164C1122.71 227.901 1113.96 224.4 1103.67 224.4V236.4ZM1120.53 243.343C1125.05 248.07 1127.28 253.643 1127.28 260.4H1139.28C1139.28 250.623 1135.9 242.064 1129.22 235.057L1120.53 243.343ZM1127.28 260.4C1127.28 267.479 1125.01 273.169 1120.53 277.857L1129.22 286.143C1135.94 279.097 1139.28 270.387 1139.28 260.4H1127.28ZM1120.53 277.862C1116.49 282.104 1111.08 284.4 1103.67 284.4V296.4C1113.87 296.4 1122.59 293.095 1129.22 286.138L1120.53 277.862ZM1199.29 558.2V337H1187.29V558.2H1199.29ZM1239.69 337V558.2H1251.69V337H1239.69ZM1171.09 397.2H1267.89V385.2H1171.09V397.2ZM1267.89 431.2H1171.09V443.2H1267.89V431.2ZM1406.48 508.8C1387.95 508.8 1371.37 504.623 1356.6 496.364L1350.75 506.837C1367.45 516.177 1386.07 520.8 1406.48 520.8V508.8ZM1356.71 496.424C1342.09 487.853 1330.4 476.417 1321.59 462.061L1311.36 468.34C1321.21 484.383 1334.33 497.214 1350.64 506.776L1356.71 496.424ZM1321.65 462.166C1313.15 447.672 1308.88 431.529 1308.88 413.6H1296.88C1296.88 433.538 1301.66 451.795 1311.3 468.235L1321.65 462.166ZM1308.88 413.6C1308.88 395.67 1313.15 379.831 1321.6 365.914L1311.35 359.686C1301.66 375.637 1296.88 393.664 1296.88 413.6H1308.88ZM1321.63 365.874C1330.15 351.595 1341.77 340.333 1356.6 332.037L1350.75 321.564C1334.11 330.867 1320.94 343.606 1311.32 359.727L1321.63 365.874ZM1356.67 331.999C1371.44 323.488 1387.86 319.2 1406.08 319.2V307.2C1385.89 307.2 1367.38 311.98 1350.68 321.602L1356.67 331.999ZM1406.08 319.2C1424.85 319.2 1441.39 323.502 1455.84 331.976L1461.91 321.624C1445.43 311.965 1426.76 307.2 1406.08 307.2V319.2ZM1455.95 332.037C1470.78 340.333 1482.4 351.595 1490.92 365.874L1501.23 359.727C1491.61 343.606 1478.44 330.867 1461.8 321.564L1455.95 332.037ZM1490.95 365.914C1499.4 379.831 1503.67 395.67 1503.67 413.6H1515.67C1515.67 393.664 1510.89 375.637 1501.2 359.686L1490.95 365.914ZM1503.67 413.6C1503.67 431.529 1499.4 447.672 1490.9 462.166L1501.25 468.235C1510.89 451.795 1515.67 433.538 1515.67 413.6H1503.67ZM1490.92 462.127C1482.4 476.422 1470.75 487.833 1455.88 496.402L1461.87 506.799C1478.47 497.234 1491.62 484.379 1501.23 468.274L1490.92 462.127ZM1455.91 496.385C1441.43 504.623 1425 508.8 1406.48 508.8V520.8C1426.88 520.8 1445.39 516.177 1461.84 506.815L1455.91 496.385ZM1406.08 472C1416.83 472 1426.55 469.667 1435.05 464.81L1429.1 454.391C1422.66 458.067 1415.05 460 1406.08 460V472ZM1435.11 464.776C1443.79 459.687 1450.47 452.728 1455 443.957L1444.35 438.444C1440.88 445.139 1435.83 450.446 1429.04 454.424L1435.11 464.776ZM1454.97 444.024C1459.75 435.057 1462.08 425.001 1462.08 414H1450.08C1450.08 423.266 1448.13 431.344 1444.38 438.377L1454.97 444.024ZM1462.08 414C1462.08 403.004 1459.75 393.046 1454.93 384.302L1444.42 390.099C1448.13 396.821 1450.08 404.73 1450.08 414H1462.08ZM1454.93 384.302C1450.14 375.631 1443.5 368.819 1435.05 363.991L1429.1 374.41C1435.58 378.114 1440.67 383.303 1444.42 390.099L1454.93 384.302ZM1435.19 364.072C1426.67 358.897 1416.89 356.4 1406.08 356.4V368.4C1414.99 368.4 1422.55 370.437 1428.96 374.329L1435.19 364.072ZM1406.08 356.4C1395.49 356.4 1385.86 358.913 1377.36 364.072L1383.59 374.329C1390.03 370.421 1397.46 368.4 1406.08 368.4V356.4ZM1377.5 363.991C1369.05 368.819 1362.41 375.631 1357.62 384.302L1368.13 390.099C1371.88 383.303 1376.97 378.114 1383.45 374.41L1377.5 363.991ZM1357.62 384.302C1352.8 393.046 1350.48 403.004 1350.48 414H1362.48C1362.48 404.73 1364.42 396.821 1368.13 390.099L1357.62 384.302ZM1350.48 414C1350.48 425.001 1352.8 435.057 1357.58 444.024L1368.17 438.377C1364.42 431.344 1362.48 423.266 1362.48 414H1350.48ZM1357.62 444.099C1362.39 452.739 1368.99 459.645 1377.36 464.729L1383.59 454.471C1377.03 450.488 1371.89 445.128 1368.13 438.302L1357.62 444.099ZM1377.5 464.81C1385.97 469.653 1395.55 472 1406.08 472V460C1397.4 460 1389.91 458.081 1383.45 454.391L1377.5 464.81ZM1719.85 564.794L1656.51 421.173L1645.53 426.015L1708.87 569.636L1719.85 564.794ZM1696.7 414.071L1749.93 552.553L1761.13 548.247L1707.9 409.766L1696.7 414.071ZM1755.53 544.4H1727.13V556.4H1755.53V544.4ZM1732.73 552.565L1786.6 413.342L1775.41 409.012L1721.54 548.235L1732.73 552.565ZM1825.1 420.087L1761.6 564.758L1772.59 569.581L1836.09 424.91L1825.1 420.087ZM1854.7 480V339.6H1842.7V480H1854.7ZM1895.5 339.6V480H1907.5V339.6H1895.5ZM1875.1 276C1868.02 276 1862.52 273.739 1858.14 269.357L1849.66 277.843C1856.48 284.661 1865.11 288 1875.1 288V276ZM1858.24 269.457C1853.77 264.769 1851.5 259.079 1851.5 252H1839.5C1839.5 261.987 1842.83 270.697 1849.56 277.743L1858.24 269.457ZM1851.5 252C1851.5 245.243 1853.73 239.67 1858.24 234.943L1849.56 226.657C1842.87 233.664 1839.5 242.223 1839.5 252H1851.5ZM1858.24 234.943C1862.64 230.33 1868.11 228 1875.1 228V216C1865.02 216 1856.36 219.537 1849.56 226.657L1858.24 234.943ZM1875.1 228C1882.42 228 1887.8 230.365 1891.86 234.836L1900.74 226.764C1894.14 219.501 1885.38 216 1875.1 216V228ZM1891.96 234.943C1896.47 239.67 1898.7 245.243 1898.7 252H1910.7C1910.7 242.223 1907.33 233.664 1900.64 226.657L1891.96 234.943ZM1898.7 252C1898.7 259.079 1896.43 264.769 1891.96 269.457L1900.64 277.743C1907.37 270.697 1910.7 261.987 1910.7 252H1898.7ZM1891.96 269.462C1887.91 273.704 1882.51 276 1875.1 276V288C1885.29 288 1894.02 284.696 1900.64 277.738L1891.96 269.462ZM1964.53 558.2V337H1952.53V558.2H1964.53ZM2004.93 337V558.2H2016.93V337H2004.93ZM1936.33 397.2H2033.13V385.2H1936.33V397.2ZM2033.13 431.2H1936.33V443.2H2033.13V431.2ZM2161.71 508.8C2145.16 508.8 2130.41 504.68 2117.28 496.507L2110.94 506.694C2126.08 516.121 2143.06 520.8 2161.71 520.8V508.8ZM2117.28 496.507C2104.08 488.288 2093.74 477.095 2086.22 462.806L2075.6 468.395C2084.08 484.506 2095.87 497.312 2110.94 506.694L2117.28 496.507ZM2086.22 462.806C2078.72 448.553 2074.91 432.461 2074.91 414.4H2062.91C2062.91 434.206 2067.1 452.248 2075.6 468.395L2086.22 462.806ZM2074.91 414.4C2074.91 396.058 2078.72 379.836 2086.22 365.595L2075.6 360.006C2067.1 376.165 2062.91 394.343 2062.91 414.4H2074.91ZM2086.22 365.595C2093.74 351.306 2104.08 340.112 2117.28 331.894L2110.94 321.707C2095.87 331.088 2084.08 343.895 2075.6 360.006L2086.22 365.595ZM2117.28 331.894C2130.41 323.721 2145.16 319.6 2161.71 319.6V307.6C2143.06 307.6 2126.08 312.28 2110.94 321.707L2117.28 331.894ZM2161.71 319.6C2174.75 319.6 2186.19 322.227 2196.17 327.34L2201.64 316.66C2189.76 310.573 2176.4 307.6 2161.71 307.6V319.6ZM2196.17 327.34C2206.18 332.463 2214.03 339.603 2219.84 348.804L2229.98 342.396C2222.99 331.331 2213.51 322.737 2201.64 316.66L2196.17 327.34ZM2219.94 348.959C2225.95 357.856 2229.23 367.969 2229.71 379.455L2241.7 378.945C2241.13 365.364 2237.2 353.078 2229.88 342.241L2219.94 348.959ZM2229.71 379.2V448.8H2241.71V379.2H2229.71ZM2229.71 448.55C2229.22 460.327 2225.93 470.566 2219.94 479.441L2229.88 486.159C2237.22 475.301 2241.13 462.874 2241.7 449.05L2229.71 448.55ZM2219.88 479.535C2214.06 488.506 2206.17 495.697 2196.07 501.113L2201.75 511.687C2213.52 505.37 2222.96 496.827 2229.94 486.065L2219.88 479.535ZM2196.17 501.06C2186.19 506.173 2174.75 508.8 2161.71 508.8V520.8C2176.4 520.8 2189.76 517.827 2201.64 511.741L2196.17 501.06ZM2171.31 472.4C2187.42 472.4 2200.94 467.06 2211.27 456.12L2202.55 447.88C2194.75 456.141 2184.53 460.4 2171.31 460.4V472.4ZM2211.33 456.06C2221.57 444.916 2226.51 430.723 2226.51 414H2214.51C2214.51 428.211 2210.38 439.351 2202.49 447.94L2211.33 456.06ZM2226.51 414C2226.51 403.004 2224.19 393.046 2219.36 384.302L2208.86 390.099C2212.56 396.821 2214.51 404.73 2214.51 414H2226.51ZM2219.48 384.517C2214.97 375.502 2208.42 368.47 2199.89 363.591L2193.93 374.01C2200.33 377.664 2205.25 382.898 2208.74 389.884L2219.48 384.517ZM2200.11 363.723C2191.8 358.496 2182.12 356 2171.31 356V368C2180.23 368 2187.61 370.038 2193.71 373.878L2200.11 363.723ZM2171.31 356C2160.72 356 2151.09 358.513 2142.6 363.672L2148.82 373.929C2155.26 370.021 2162.7 368 2171.31 368V356ZM2142.65 363.638C2134.43 368.512 2127.95 375.491 2123.22 384.377L2133.8 390.024C2137.6 382.909 2142.59 377.622 2148.77 373.962L2142.65 363.638ZM2123.18 384.444C2118.67 393.159 2116.51 403.065 2116.51 414H2128.51C2128.51 404.669 2130.35 396.708 2133.84 389.957L2123.18 384.444ZM2116.51 414C2116.51 425.18 2118.66 435.325 2123.14 444.284L2133.88 438.917C2130.36 431.876 2128.51 423.62 2128.51 414H2116.51ZM2123.26 444.499C2127.99 453.085 2134.42 459.983 2142.51 465.078L2148.91 454.923C2142.6 450.951 2137.56 445.582 2133.76 438.702L2123.26 444.499ZM2142.73 465.21C2151.21 470.053 2160.79 472.4 2171.31 472.4V460.4C2162.63 460.4 2155.14 458.481 2148.69 454.791L2142.73 465.21ZM2223.71 484.8V458.8H2211.71V484.8H2223.71ZM2223.62 459.852L2232.02 412.652L2220.2 410.549L2211.8 457.749L2223.62 459.852ZM2232.01 410.531L2223.61 364.131L2211.81 366.269L2220.21 412.669L2232.01 410.531ZM2223.71 365.2V343.6H2211.71V365.2H2223.71ZM2263.71 343.6V484.8H2275.71V343.6H2263.71ZM2387.9 586.8C2368.5 586.8 2351.5 582.723 2336.76 574.726L2331.04 585.274C2347.76 594.344 2366.77 598.8 2387.9 598.8V586.8ZM2336.83 574.764C2321.98 566.459 2310.2 555.177 2301.41 540.861L2291.19 547.14C2301.06 563.224 2314.35 575.942 2330.97 585.237L2336.83 574.764ZM2301.45 540.927C2292.99 526.747 2288.7 510.496 2288.7 492H2276.7C2276.7 512.438 2281.47 530.853 2291.15 547.074L2301.45 540.927ZM2288.7 492C2288.7 473.753 2292.87 457.76 2301.07 443.846L2290.73 437.754C2281.33 453.707 2276.7 471.847 2276.7 492H2288.7ZM2301.05 443.874C2309.59 429.57 2321.1 418.305 2335.67 410.015L2329.73 399.585C2313.37 408.895 2300.35 421.631 2290.75 437.727L2301.05 443.874ZM2335.73 409.976C2350.23 401.48 2366.37 397.2 2384.3 397.2V385.2C2364.36 385.2 2346.1 389.987 2329.67 399.624L2335.73 409.976ZM2384.3 397.2C2402.02 397.2 2417.32 401.239 2430.4 409.137L2436.6 398.864C2421.41 389.695 2403.91 385.2 2384.3 385.2V397.2ZM2430.51 409.204C2443.95 416.915 2454.36 427.573 2461.83 441.273L2472.37 435.527C2463.84 419.894 2451.85 407.618 2436.49 398.797L2430.51 409.204ZM2461.9 441.387C2469.59 454.783 2473.5 470.132 2473.5 487.6H2485.5C2485.5 468.268 2481.15 450.818 2472.3 435.413L2461.9 441.387ZM2473.5 487.696C2473.5 487.703 2473.5 487.71 2473.5 487.716C2473.5 487.723 2473.5 487.73 2473.5 487.736C2473.5 487.743 2473.5 487.75 2473.5 487.756C2473.5 487.763 2473.5 487.77 2473.5 487.776C2473.5 487.783 2473.5 487.789 2473.5 487.795C2473.5 487.802 2473.5 487.808 2473.5 487.815C2473.5 487.821 2473.5 487.827 2473.5 487.833C2473.5 487.84 2473.5 487.846 2473.5 487.852C2473.5 487.858 2473.5 487.865 2473.5 487.871C2473.5 487.877 2473.5 487.883 2473.5 487.889C2473.5 487.895 2473.5 487.901 2473.5 487.907C2473.5 487.913 2473.5 487.919 2473.5 487.924C2473.5 487.93 2473.5 487.936 2473.5 487.942C2473.5 487.948 2473.5 487.953 2473.51 487.959C2473.51 487.965 2473.51 487.971 2473.51 487.976C2473.51 487.982 2473.51 487.987 2473.51 487.993C2473.51 487.999 2473.51 488.004 2473.51 488.01C2473.51 488.015 2473.51 488.02 2473.51 488.026C2473.51 488.031 2473.51 488.037 2473.51 488.042C2473.51 488.047 2473.51 488.053 2473.51 488.058C2473.51 488.063 2473.51 488.068 2473.51 488.073C2473.51 488.079 2473.51 488.084 2473.51 488.089C2473.51 488.094 2473.51 488.099 2473.51 488.104C2473.51 488.109 2473.51 488.114 2473.51 488.119C2473.51 488.124 2473.51 488.129 2473.51 488.134C2473.51 488.139 2473.51 488.143 2473.51 488.148C2473.51 488.153 2473.51 488.158 2473.51 488.162C2473.51 488.167 2473.51 488.172 2473.51 488.176C2473.51 488.181 2473.51 488.186 2473.51 488.19C2473.51 488.195 2473.51 488.199 2473.51 488.204C2473.51 488.208 2473.51 488.213 2473.51 488.217C2473.51 488.222 2473.51 488.226 2473.51 488.23C2473.51 488.235 2473.51 488.239 2473.51 488.243C2473.51 488.248 2473.51 488.252 2473.51 488.256C2473.51 488.26 2473.51 488.265 2473.51 488.269C2473.51 488.273 2473.51 488.277 2473.51 488.281C2473.51 488.285 2473.51 488.289 2473.51 488.293C2473.51 488.297 2473.51 488.301 2473.51 488.305C2473.51 488.309 2473.51 488.313 2473.51 488.317C2473.51 488.321 2473.51 488.324 2473.51 488.328C2473.51 488.332 2473.51 488.336 2473.51 488.339C2473.51 488.343 2473.51 488.347 2473.51 488.35C2473.51 488.354 2473.51 488.358 2473.51 488.361C2473.51 488.365 2473.51 488.368 2473.51 488.372C2473.51 488.375 2473.51 488.379 2473.51 488.382C2473.51 488.386 2473.51 488.389 2473.51 488.393C2473.51 488.396 2473.51 488.399 2473.51 488.403C2473.51 488.406 2473.51 488.409 2473.51 488.412C2473.51 488.416 2473.51 488.419 2473.51 488.422C2473.51 488.425 2473.51 488.428 2473.51 488.431C2473.51 488.435 2473.51 488.438 2473.51 488.441C2473.51 488.444 2473.51 488.447 2473.51 488.45C2473.51 488.453 2473.51 488.456 2473.51 488.459C2473.51 488.461 2473.51 488.464 2473.51 488.467C2473.51 488.47 2473.51 488.473 2473.51 488.476C2473.51 488.478 2473.51 488.481 2473.51 488.484C2473.51 488.49 2473.51 488.494 2473.51 488.5C2473.51 488.502 2473.51 488.505 2473.51 488.507C2473.51 488.51 2473.51 488.512 2473.51 488.515C2473.51 488.519 2473.51 488.525 2473.51 488.529C2473.51 488.532 2473.51 488.534 2473.51 488.536C2473.51 488.538 2473.51 488.541 2473.51 488.543C2473.52 488.613 2473.52 488.653 2473.52 488.665C2473.52 488.669 2473.52 488.67 2473.52 488.67C2479.61 494.574 2485.51 488.479 2485.51 488.479C2485.51 488.479 2485.51 488.479 2485.51 488.479C2485.51 488.478 2485.51 488.479 2485.51 488.478C2485.51 488.477 2485.51 488.477 2485.51 488.474C2485.51 488.469 2485.51 488.456 2485.51 488.439C2485.51 488.301 2485.5 487.832 2485.5 487.371C2485.49 486.912 2485.48 486.462 2485.48 486.37C2485.48 486.368 2485.48 486.368 2485.48 486.366C2485.48 486.365 2485.48 486.365 2485.48 486.364C2485.48 486.364 2485.48 486.363 2485.48 486.362C2485.48 486.362 2485.48 486.361 2485.48 486.361C2485.48 486.36 2485.48 486.36 2485.48 486.359C2485.48 486.359 2485.48 486.358 2485.48 486.358C2485.48 486.358 2485.48 486.357 2485.48 486.357C2485.48 486.355 2485.48 486.355 2485.48 486.354C2485.48 486.353 2485.48 486.353 2485.48 486.353C2485.48 486.353 2485.48 486.353 2485.48 486.353C2485.48 486.353 2479.39 480.449 2473.48 486.544C2473.48 486.544 2473.48 486.55 2473.48 486.564C2473.48 486.565 2473.48 486.566 2473.48 486.566C2473.48 486.567 2473.48 486.568 2473.48 486.569C2473.48 486.57 2473.48 486.571 2473.48 486.572C2473.48 486.573 2473.48 486.574 2473.48 486.575C2473.48 486.576 2473.48 486.577 2473.48 486.578C2473.48 486.58 2473.48 486.581 2473.48 486.582C2473.48 486.583 2473.48 486.584 2473.48 486.585C2473.48 486.587 2473.48 486.588 2473.48 486.589C2473.48 486.59 2473.48 486.592 2473.48 486.593C2473.48 486.594 2473.48 486.596 2473.48 486.597C2473.48 486.599 2473.48 486.6 2473.48 486.601C2473.48 486.603 2473.48 486.604 2473.48 486.606C2473.48 486.607 2473.48 486.609 2473.48 486.61C2473.48 486.612 2473.48 486.614 2473.48 486.615C2473.48 486.617 2473.48 486.618 2473.48 486.62C2473.48 486.622 2473.48 486.624 2473.48 486.625C2473.48 486.627 2473.48 486.629 2473.48 486.631C2473.48 486.632 2473.48 486.634 2473.48 486.636C2473.48 486.638 2473.48 486.64 2473.48 486.642C2473.48 486.644 2473.48 486.646 2473.48 486.648C2473.48 486.65 2473.48 486.652 2473.48 486.654C2473.48 486.656 2473.48 486.658 2473.48 486.66C2473.48 486.662 2473.48 486.664 2473.48 486.666C2473.48 486.668 2473.48 486.671 2473.48 486.673C2473.48 486.675 2473.48 486.677 2473.48 486.68C2473.48 486.682 2473.48 486.684 2473.48 486.687C2473.48 486.689 2473.48 486.691 2473.48 486.694C2473.48 486.696 2473.48 486.699 2473.48 486.701C2473.48 486.704 2473.48 486.706 2473.48 486.709C2473.49 486.711 2473.49 486.714 2473.49 486.716C2473.49 486.719 2473.49 486.721 2473.49 486.724C2473.49 486.727 2473.49 486.73 2473.49 486.732C2473.49 486.735 2473.49 486.738 2473.49 486.741C2473.49 486.743 2473.49 486.746 2473.49 486.749C2473.49 486.752 2473.49 486.755 2473.49 486.758C2473.49 486.761 2473.49 486.764 2473.49 486.767C2473.49 486.77 2473.49 486.773 2473.49 486.776C2473.49 486.779 2473.49 486.782 2473.49 486.785C2473.49 486.788 2473.49 486.791 2473.49 486.794C2473.49 486.798 2473.49 486.801 2473.49 486.804C2473.49 486.811 2473.49 486.817 2473.49 486.824C2473.49 486.827 2473.49 486.831 2473.49 486.834C2473.49 486.838 2473.49 486.841 2473.49 486.845C2473.49 486.848 2473.49 486.852 2473.49 486.855C2473.49 486.859 2473.49 486.863 2473.49 486.866C2473.49 486.87 2473.49 486.874 2473.49 486.877C2473.49 486.881 2473.49 486.885 2473.49 486.889C2473.49 486.893 2473.49 486.896 2473.49 486.9C2473.49 486.904 2473.49 486.908 2473.49 486.912C2473.49 486.916 2473.49 486.92 2473.49 486.924C2473.49 486.928 2473.49 486.932 2473.49 486.936C2473.49 486.94 2473.49 486.944 2473.49 486.948C2473.49 486.953 2473.49 486.957 2473.49 486.961C2473.49 486.965 2473.49 486.97 2473.49 486.974C2473.49 486.978 2473.49 486.982 2473.49 486.987C2473.49 486.991 2473.49 486.996 2473.49 487C2473.49 487.005 2473.49 487.009 2473.49 487.014C2473.49 487.018 2473.49 487.023 2473.49 487.027C2473.49 487.032 2473.49 487.036 2473.49 487.041C2473.49 487.06 2473.49 487.079 2473.49 487.099C2473.49 487.104 2473.49 487.109 2473.49 487.114C2473.49 487.119 2473.49 487.124 2473.49 487.129C2473.49 487.134 2473.49 487.139 2473.49 487.145C2473.49 487.15 2473.49 487.155 2473.49 487.16C2473.49 487.165 2473.49 487.171 2473.49 487.176C2473.49 487.181 2473.49 487.187 2473.49 487.192C2473.49 487.198 2473.49 487.203 2473.49 487.209C2473.49 487.214 2473.49 487.22 2473.49 487.225C2473.49 487.231 2473.49 487.236 2473.49 487.242C2473.49 487.248 2473.49 487.253 2473.49 487.259C2473.49 487.265 2473.49 487.271 2473.49 487.276C2473.49 487.282 2473.49 487.288 2473.49 487.294C2473.49 487.3 2473.49 487.306 2473.49 487.312C2473.49 487.318 2473.49 487.324 2473.49 487.33C2473.49 487.336 2473.5 487.342 2473.5 487.348C2473.5 487.354 2473.5 487.36 2473.5 487.367C2473.5 487.373 2473.5 487.379 2473.5 487.385C2473.5 487.392 2473.5 487.398 2473.5 487.404C2473.5 487.411 2473.5 487.417 2473.5 487.423C2473.5 487.43 2473.5 487.436 2473.5 487.443C2473.5 487.449 2473.5 487.456 2473.5 487.463C2473.5 487.469 2473.5 487.476 2473.5 487.483C2473.5 487.489 2473.5 487.496 2473.5 487.503C2473.5 487.51 2473.5 487.516 2473.5 487.523C2473.5 487.53 2473.5 487.537 2473.5 487.544C2473.5 487.551 2473.5 487.558 2473.5 487.565C2473.5 487.572 2473.5 487.579 2473.5 487.586C2473.5 487.593 2473.5 487.6 2473.5 487.608C2473.5 487.615 2473.5 487.622 2473.5 487.629C2473.5 487.637 2473.5 487.644 2473.5 487.651C2473.5 487.659 2473.5 487.666 2473.5 487.673C2473.5 487.681 2473.5 487.688 2473.5 487.696L2485.5 487.505C2485.5 487.497 2485.5 487.49 2485.5 487.482C2485.5 487.475 2485.5 487.467 2485.5 487.46C2485.5 487.453 2485.5 487.445 2485.5 487.438C2485.5 487.431 2485.5 487.424 2485.5 487.416C2485.5 487.409 2485.5 487.402 2485.5 487.395C2485.5 487.388 2485.5 487.381 2485.5 487.374C2485.5 487.367 2485.5 487.36 2485.5 487.353C2485.5 487.346 2485.5 487.339 2485.5 487.332C2485.5 487.325 2485.5 487.318 2485.5 487.312C2485.5 487.305 2485.5 487.298 2485.5 487.291C2485.5 487.285 2485.5 487.278 2485.5 487.271C2485.5 487.265 2485.5 487.258 2485.5 487.252C2485.5 487.245 2485.49 487.239 2485.49 487.232C2485.49 487.226 2485.49 487.219 2485.49 487.213C2485.49 487.207 2485.49 487.2 2485.49 487.194C2485.49 487.188 2485.49 487.182 2485.49 487.175C2485.49 487.169 2485.49 487.163 2485.49 487.157C2485.49 487.151 2485.49 487.145 2485.49 487.139C2485.49 487.133 2485.49 487.127 2485.49 487.121C2485.49 487.115 2485.49 487.109 2485.49 487.103C2485.49 487.097 2485.49 487.091 2485.49 487.085C2485.49 487.079 2485.49 487.074 2485.49 487.068C2485.49 487.062 2485.49 487.057 2485.49 487.051C2485.49 487.045 2485.49 487.04 2485.49 487.034C2485.49 486.99 2485.49 486.947 2485.49 486.908C2485.49 486.903 2485.49 486.898 2485.49 486.893C2485.49 486.888 2485.49 486.883 2485.49 486.878C2485.49 486.873 2485.49 486.869 2485.49 486.864C2485.49 486.859 2485.49 486.855 2485.49 486.85C2485.49 486.845 2485.49 486.841 2485.49 486.836C2485.49 486.831 2485.49 486.827 2485.49 486.822C2485.49 486.818 2485.49 486.813 2485.49 486.809C2485.49 486.804 2485.49 486.8 2485.49 486.796C2485.49 486.791 2485.49 486.787 2485.49 486.783C2485.49 486.778 2485.49 486.774 2485.49 486.77C2485.49 486.766 2485.49 486.761 2485.49 486.757C2485.49 486.753 2485.49 486.749 2485.49 486.745C2485.49 486.741 2485.49 486.737 2485.49 486.733C2485.49 486.729 2485.49 486.725 2485.49 486.721C2485.49 486.717 2485.49 486.713 2485.49 486.709C2485.49 486.705 2485.49 486.701 2485.49 486.698C2485.49 486.694 2485.49 486.69 2485.49 486.686C2485.49 486.682 2485.49 486.679 2485.49 486.675C2485.49 486.671 2485.49 486.668 2485.49 486.664C2485.49 486.661 2485.49 486.657 2485.49 486.654C2485.49 486.65 2485.49 486.647 2485.49 486.643C2485.49 486.64 2485.49 486.636 2485.49 486.633C2485.49 486.629 2485.49 486.626 2485.49 486.623C2485.49 486.619 2485.49 486.616 2485.48 486.613C2485.48 486.61 2485.48 486.606 2485.48 486.603C2485.48 486.6 2485.48 486.597 2485.48 486.594C2485.48 486.591 2485.48 486.587 2485.48 486.584C2485.48 486.581 2485.48 486.578 2485.48 486.575C2485.48 486.572 2485.48 486.569 2485.48 486.566C2485.48 486.564 2485.48 486.561 2485.48 486.558C2485.48 486.555 2485.48 486.552 2485.48 486.549C2485.48 486.547 2485.48 486.544 2485.48 486.541C2485.48 486.453 2485.48 486.4 2485.48 486.373C2485.48 486.359 2485.48 486.353 2485.48 486.353C2479.58 492.447 2473.48 486.544 2473.48 486.544C2473.48 486.544 2473.48 486.544 2473.48 486.544C2473.48 486.544 2473.48 486.545 2473.48 486.545C2473.48 486.546 2473.48 486.547 2473.48 486.548C2473.48 486.551 2473.48 486.556 2473.48 486.561C2473.48 486.654 2473.49 487.102 2473.5 487.563C2473.51 488.022 2473.51 488.494 2473.52 488.631C2473.52 488.648 2473.52 488.66 2473.52 488.666C2473.52 488.666 2473.52 488.669 2473.52 488.669C2473.52 488.67 2473.52 488.67 2473.52 488.67C2473.52 488.67 2473.52 488.67 2473.52 488.67C2473.52 488.67 2479.42 482.575 2485.51 488.479C2485.51 488.479 2485.51 488.479 2485.51 488.479C2485.51 488.479 2485.51 488.479 2485.51 488.479C2485.51 488.478 2485.51 488.479 2485.51 488.478C2485.51 488.478 2485.51 488.477 2485.51 488.477C2485.51 488.477 2485.51 488.477 2485.51 488.476C2485.51 488.476 2485.51 488.476 2485.51 488.475C2485.51 488.475 2485.51 488.475 2485.51 488.474C2485.51 488.468 2485.51 488.455 2485.51 488.435C2485.51 488.415 2485.51 488.386 2485.51 488.352C2485.51 488.349 2485.51 488.347 2485.51 488.345C2485.51 488.343 2485.51 488.34 2485.51 488.338C2485.51 488.336 2485.51 488.333 2485.51 488.331C2485.51 488.329 2485.51 488.326 2485.51 488.324C2485.51 488.321 2485.51 488.319 2485.51 488.316C2485.51 488.314 2485.51 488.311 2485.51 488.309C2485.51 488.306 2485.51 488.303 2485.51 488.301C2485.51 488.298 2485.51 488.295 2485.51 488.293C2485.51 488.29 2485.51 488.287 2485.51 488.284C2485.51 488.282 2485.51 488.279 2485.51 488.276C2485.51 488.273 2485.51 488.27 2485.51 488.267C2485.51 488.264 2485.51 488.261 2485.51 488.259C2485.51 488.256 2485.51 488.253 2485.51 488.249C2485.51 488.246 2485.51 488.243 2485.51 488.24C2485.51 488.237 2485.51 488.234 2485.51 488.231C2485.51 488.228 2485.51 488.224 2485.51 488.221C2485.51 488.218 2485.51 488.215 2485.51 488.211C2485.51 488.208 2485.51 488.205 2485.51 488.201C2485.51 488.198 2485.51 488.195 2485.51 488.191C2485.51 488.188 2485.51 488.184 2485.51 488.181C2485.51 488.177 2485.51 488.174 2485.51 488.17C2485.51 488.167 2485.51 488.163 2485.51 488.159C2485.51 488.156 2485.51 488.152 2485.51 488.148C2485.51 488.144 2485.51 488.141 2485.51 488.137C2485.51 488.133 2485.51 488.129 2485.51 488.125C2485.51 488.122 2485.51 488.118 2485.51 488.114C2485.51 488.11 2485.51 488.106 2485.51 488.102C2485.51 488.098 2485.51 488.094 2485.51 488.09C2485.51 488.086 2485.51 488.082 2485.51 488.077C2485.51 488.073 2485.51 488.069 2485.51 488.065C2485.51 488.061 2485.51 488.057 2485.51 488.052C2485.51 488.048 2485.51 488.044 2485.51 488.039C2485.51 488.035 2485.51 488.031 2485.51 488.026C2485.51 488.022 2485.51 488.017 2485.51 488.013C2485.51 488.008 2485.51 488.004 2485.51 487.999C2485.51 487.995 2485.51 487.99 2485.51 487.985C2485.51 487.981 2485.51 487.976 2485.51 487.971C2485.51 487.966 2485.51 487.962 2485.51 487.957C2485.51 487.952 2485.51 487.947 2485.51 487.942C2485.51 487.938 2485.51 487.933 2485.51 487.928C2485.51 487.923 2485.51 487.918 2485.51 487.913C2485.51 487.908 2485.51 487.903 2485.51 487.898C2485.51 487.893 2485.51 487.887 2485.51 487.882C2485.51 487.877 2485.51 487.872 2485.51 487.867C2485.5 487.861 2485.5 487.856 2485.5 487.851C2485.5 487.845 2485.5 487.84 2485.5 487.835C2485.5 487.829 2485.5 487.824 2485.5 487.818C2485.5 487.813 2485.5 487.807 2485.5 487.802C2485.5 487.796 2485.5 487.791 2485.5 487.785C2485.5 487.779 2485.5 487.774 2485.5 487.768C2485.5 487.762 2485.5 487.757 2485.5 487.751C2485.5 487.745 2485.5 487.739 2485.5 487.733C2485.5 487.727 2485.5 487.721 2485.5 487.716C2485.5 487.71 2485.5 487.704 2485.5 487.698C2485.5 487.692 2485.5 487.685 2485.5 487.679C2485.5 487.673 2485.5 487.667 2485.5 487.661C2485.5 487.655 2485.5 487.649 2485.5 487.642C2485.5 487.636 2485.5 487.63 2485.5 487.623C2485.5 487.617 2485.5 487.611 2485.5 487.604C2485.5 487.598 2485.5 487.591 2485.5 487.585C2485.5 487.578 2485.5 487.572 2485.5 487.565C2485.5 487.559 2485.5 487.552 2485.5 487.545C2485.5 487.539 2485.5 487.532 2485.5 487.525C2485.5 487.518 2485.5 487.512 2485.5 487.505L2473.5 487.696ZM2453.71 504.457L2314.29 504.8L2314.31 516.8L2453.74 516.457L2453.71 504.457ZM2320.3 510.8V471.6H2308.3V510.8H2320.3ZM2448.63 466.455L2427.43 482.855L2434.77 492.346L2455.97 475.946L2448.63 466.455ZM2437.09 487.322C2436.53 475.304 2434.29 464.855 2430.1 456.192L2419.3 461.409C2422.58 468.212 2424.6 476.963 2425.11 487.879L2437.09 487.322ZM2430.18 456.346C2426.22 447.532 2420.19 440.672 2412.1 436.003L2406.1 446.397C2411.88 449.728 2416.24 454.601 2419.22 461.255L2430.18 456.346ZM2412.33 436.147C2404.49 431.126 2395.03 428.8 2384.3 428.8V440.8C2393.3 440.8 2400.38 442.742 2405.87 446.254L2412.33 436.147ZM2384.3 428.8C2372.94 428.8 2362.75 431.432 2353.94 436.902L2360.26 447.098C2366.92 442.968 2374.85 440.8 2384.3 440.8V428.8ZM2354.07 436.824C2345.26 441.983 2338.48 449.414 2333.73 458.917L2344.47 464.284C2348.25 456.719 2353.47 451.084 2360.13 447.176L2354.07 436.824ZM2333.7 458.987C2329.22 468.245 2327.1 479.048 2327.1 491.2H2339.1C2339.1 480.419 2340.98 471.489 2344.5 464.214L2333.7 458.987ZM2327.1 491.2C2327.1 503.661 2329.37 514.855 2334.1 524.618L2344.9 519.383C2341.1 511.546 2339.1 502.206 2339.1 491.2H2327.1ZM2334.2 524.815C2339.25 534.326 2346.44 541.82 2355.69 547.189L2361.71 536.812C2354.43 532.58 2348.81 526.741 2344.8 519.185L2334.2 524.815ZM2355.81 547.261C2365.1 552.352 2375.72 554.8 2387.5 554.8V542.8C2377.41 542.8 2368.84 540.715 2361.58 536.739L2355.81 547.261ZM2387.5 554.8C2398.02 554.8 2407.72 553.093 2416.53 549.571L2412.07 538.429C2404.88 541.308 2396.71 542.8 2387.5 542.8V554.8ZM2416.69 549.506C2419.07 548.471 2421.38 547.303 2423.61 546.004L2417.55 535.642C2415.75 536.697 2413.87 537.648 2411.91 538.495L2416.69 549.506ZM2444.23 570.907C2439.6 573.987 2434.6 576.637 2429.22 578.852L2433.78 589.948C2439.86 587.445 2445.56 584.431 2450.87 580.9L2444.23 570.907ZM2429.18 578.868C2416.64 584.133 2402.91 586.8 2387.9 586.8V598.8C2404.36 598.8 2419.69 595.867 2433.82 589.932L2429.18 578.868ZM2314.32 477.6L2383.32 477.4L2383.28 465.4L2314.28 465.6L2314.32 477.6ZM2383.32 477.4L2452.32 477.2L2452.28 465.2L2383.28 465.4L2383.32 477.4ZM2444.25 546.431C2448.09 550.271 2450.06 555.264 2450.05 559.831C2450.04 564.282 2448.18 568.282 2444.23 570.907L2450.87 580.9C2458.5 575.828 2462.03 567.886 2462.05 559.861C2462.07 551.952 2458.72 543.936 2452.73 537.946L2444.25 546.431ZM2050.13 414.2C2050.13 423.589 2042.52 431.2 2033.13 431.2V443.2C2049.14 443.2 2062.13 430.217 2062.13 414.2H2050.13ZM2033.13 397.2C2042.52 397.2 2050.13 404.811 2050.13 414.2H2062.13C2062.13 398.184 2049.14 385.2 2033.13 385.2V397.2ZM1919.33 414.2C1919.33 404.811 1926.94 397.2 1936.33 397.2V385.2C1920.31 385.2 1907.33 398.184 1907.33 414.2H1919.33ZM1907.33 414.2C1907.33 430.217 1920.31 443.2 1936.33 443.2V431.2C1926.94 431.2 1919.33 423.589 1919.33 414.2H1907.33ZM2004.93 558.2C2004.93 569.356 1995.88 578.4 1984.73 578.4V590.4C2002.51 590.4 2016.93 575.984 2016.93 558.2H2004.93ZM2263.71 484.8C2263.71 495.846 2254.76 504.8 2243.71 504.8V516.8C2261.38 516.8 2275.71 502.473 2275.71 484.8H2263.71ZM1895.5 480C1895.5 491.267 1886.37 500.4 1875.1 500.4V512.4C1892.99 512.4 1907.5 497.894 1907.5 480H1895.5ZM2243.71 323.6C2254.76 323.6 2263.71 332.555 2263.71 343.6H2275.71C2275.71 325.927 2261.38 311.6 2243.71 311.6V323.6ZM1875.1 319.2C1886.37 319.2 1895.5 328.333 1895.5 339.6H1907.5C1907.5 321.706 1892.99 307.2 1875.1 307.2V319.2ZM2223.71 343.6C2223.71 332.555 2232.66 323.6 2243.71 323.6V311.6C2226.04 311.6 2211.71 325.927 2211.71 343.6H2223.71ZM1854.7 339.6C1854.7 328.333 1863.83 319.2 1875.1 319.2V307.2C1857.21 307.2 1842.7 321.706 1842.7 339.6H1854.7ZM1842.7 480C1842.7 497.894 1857.21 512.4 1875.1 512.4V500.4C1863.83 500.4 1854.7 491.267 1854.7 480H1842.7ZM1761.6 564.758C1757.97 573.047 1749.77 578.4 1740.72 578.4V590.4C1754.53 590.4 1767.04 582.231 1772.59 569.581L1761.6 564.758ZM1124.08 488.4C1124.08 499.667 1114.94 508.8 1103.68 508.8V520.8C1121.57 520.8 1136.08 506.294 1136.08 488.4H1124.08ZM1810.15 397.2C1821.94 397.2 1829.84 409.299 1825.1 420.087L1836.09 424.91C1844.31 406.192 1830.6 385.2 1810.15 385.2V397.2ZM1040.28 544.767C1044.61 549.097 1046.78 554.765 1046.68 559.955C1046.58 565.031 1044.35 569.603 1039.72 572.501L1046.09 582.671C1054.5 577.404 1058.51 568.883 1058.68 560.189C1058.85 551.609 1055.31 542.828 1048.77 536.282L1040.28 544.767ZM1656.51 421.173C1651.53 409.883 1659.8 397.2 1672.14 397.2V385.2C1651.13 385.2 1637.05 406.793 1645.53 426.015L1656.51 421.173ZM2473.59 486.593C2471.75 497.341 2463.92 504.432 2453.71 504.457L2453.74 516.457C2470.46 516.416 2482.72 504.419 2485.41 488.608L2473.59 486.593ZM1984.73 316.8C1995.88 316.8 2004.93 325.844 2004.93 337H2016.93C2016.93 319.217 2002.51 304.8 1984.73 304.8V316.8ZM1284.89 414.2C1284.89 423.589 1277.28 431.2 1267.89 431.2V443.2C1283.91 443.2 1296.89 430.217 1296.89 414.2H1284.89ZM1964.53 337C1964.53 325.844 1973.57 316.8 1984.73 316.8V304.8C1966.94 304.8 1952.53 319.217 1952.53 337H1964.53ZM1267.89 397.2C1277.28 397.2 1284.89 404.811 1284.89 414.2H1296.89C1296.89 398.184 1283.91 385.2 1267.89 385.2V397.2ZM1952.53 558.2C1952.53 575.984 1966.94 590.4 1984.73 590.4V578.4C1973.57 578.4 1964.53 569.356 1964.53 558.2H1952.53ZM1154.09 414.2C1154.09 404.811 1161.7 397.2 1171.09 397.2V385.2C1155.08 385.2 1142.09 398.184 1142.09 414.2H1154.09ZM1142.09 414.2C1142.09 430.217 1155.08 443.2 1171.09 443.2V431.2C1161.7 431.2 1154.09 423.589 1154.09 414.2H1142.09ZM1239.69 558.2C1239.69 569.356 1230.65 578.4 1219.49 578.4V590.4C1237.28 590.4 1251.69 575.984 1251.69 558.2H1239.69ZM1219.49 316.8C1230.65 316.8 1239.69 325.844 1239.69 337H1251.69C1251.69 319.217 1237.28 304.8 1219.49 304.8V316.8ZM2211.71 484.8C2211.71 502.473 2226.04 516.8 2243.71 516.8V504.8C2232.66 504.8 2223.71 495.846 2223.71 484.8H2211.71ZM1103.68 327.6C1114.94 327.6 1124.08 336.733 1124.08 348H1136.08C1136.08 330.106 1121.57 315.6 1103.68 315.6V327.6ZM1786.6 413.342C1790.36 403.613 1799.72 397.2 1810.15 397.2V385.2C1794.77 385.2 1780.96 394.661 1775.41 409.012L1786.6 413.342ZM1199.29 337C1199.29 325.844 1208.34 316.8 1219.49 316.8V304.8C1201.71 304.8 1187.29 319.217 1187.29 337H1199.29ZM1187.29 558.2C1187.29 575.984 1201.71 590.4 1219.49 590.4V578.4C1208.34 578.4 1199.29 569.356 1199.29 558.2H1187.29ZM1083.27 348C1083.27 336.733 1092.41 327.6 1103.68 327.6V315.6C1085.78 315.6 1071.27 330.106 1071.27 348H1083.27ZM1672.14 397.2C1683.03 397.2 1692.79 403.907 1696.7 414.071L1707.9 409.766C1702.21 394.966 1687.99 385.2 1672.14 385.2V397.2ZM1071.27 488.4C1071.27 506.294 1085.78 520.8 1103.68 520.8V508.8C1092.41 508.8 1083.27 499.667 1083.27 488.4H1071.27ZM2423.61 546.004C2431.15 541.596 2439.66 541.847 2444.25 546.431L2452.73 537.946C2442.81 528.025 2427.72 529.704 2417.55 535.642L2423.61 546.004ZM1039.72 438.828C1034.53 444.078 1024.83 444.355 1015.65 440.184L1010.69 451.111C1021.74 456.129 1037.82 457.82 1048.25 447.262L1039.72 438.828ZM1708.87 569.636C1714.43 582.256 1726.92 590.4 1740.72 590.4V578.4C1731.68 578.4 1723.49 573.064 1719.85 564.794L1708.87 569.636ZM1016.57 543.887C1025.48 539.43 1035.11 539.599 1040.28 544.767L1048.77 536.282C1038.25 525.761 1022.14 527.685 1011.2 533.155L1016.57 543.887ZM1039.18 411.172C1043.79 414.035 1046.01 418.56 1046.1 423.612C1046.2 428.785 1044.03 434.463 1039.72 438.828L1048.25 447.262C1054.73 440.704 1058.26 431.944 1058.1 423.386C1057.94 414.707 1053.94 406.208 1045.5 400.975L1039.18 411.172Z" fill="white" mask="url(#path-4-outside-1_48_2)"/>
</g>
<defs>
<clipPath id="clip0_48_2">
<rect width="2488" height="858" fill="white"/>
</clipPath>
</defs>
</svg>
