<svg width="1118" height="1118" viewBox="0 0 1118 1118" fill="none" xmlns="http://www.w3.org/2000/svg">
<path d="M152.966 509.117C125.63 481.78 125.63 437.458 152.966 410.122L513.591 49.4972C540.927 22.1605 585.249 22.1605 612.586 49.4972L973.21 410.122C1000.55 437.458 1000.55 481.78 973.21 509.117L612.586 869.741C585.249 897.078 540.927 897.078 513.591 869.741L152.966 509.117Z" fill="#35605A"/>
<path d="M143.999 707.086C116.663 679.75 116.663 635.428 143.999 608.091L504.624 247.467C531.961 220.13 576.282 220.13 603.619 247.467L964.243 608.091C991.58 635.428 991.58 679.75 964.243 707.086L603.619 1067.71C576.282 1095.05 531.961 1095.05 504.624 1067.71L143.999 707.086Z" fill="#35605A"/>
<path fill-rule="evenodd" clip-rule="evenodd" d="M514.227 961.746C541.564 989.082 585.885 989.082 613.222 961.746L881.923 693.045C901.449 673.519 901.449 641.861 881.923 622.334L867.78 608.192L592.009 883.963C576.388 899.584 551.061 899.584 535.441 883.963L259.669 608.192L245.527 622.334C226 641.861 226 673.519 245.527 693.045L514.227 961.746Z" fill="white"/>
<path fill-rule="evenodd" clip-rule="evenodd" d="M258.96 409.496C231.624 436.833 231.624 481.154 258.96 508.491L527.661 777.192C547.187 796.718 578.845 796.718 598.372 777.192L612.514 763.049L336.743 487.278C321.122 471.657 321.122 446.331 336.743 430.71L612.514 154.938L598.372 140.796C578.845 121.269 547.187 121.269 527.661 140.796L258.96 409.496Z" fill="white"/>
<path d="M736.965 647.083C697.913 686.135 634.597 686.135 595.544 647.083L436.541 488.079C420.92 472.458 420.92 447.132 436.541 431.511L595.544 272.507C634.597 233.455 697.913 233.455 736.966 272.507L895.969 431.511C911.59 447.132 911.59 472.458 895.969 488.079L736.965 647.083Z" fill="white"/>
</svg>
