<svg width="910" height="910" viewBox="0 0 910 910" fill="none" xmlns="http://www.w3.org/2000/svg">
<path fill-rule="evenodd" clip-rule="evenodd" d="M403.758 859.746C431.095 887.083 475.417 887.083 502.753 859.746L771.454 591.046C790.98 571.519 790.98 539.861 771.454 520.335L757.312 506.193L481.54 781.964C465.919 797.585 440.593 797.585 424.972 781.964L149.2 506.192L135.058 520.335C115.532 539.861 115.532 571.519 135.058 591.046L403.758 859.746Z" fill="#35605A"/>
<path fill-rule="evenodd" clip-rule="evenodd" d="M148.493 307.496C121.156 334.832 121.156 379.154 148.493 406.491L417.193 675.191C436.719 694.717 468.378 694.717 487.904 675.191L502.046 661.049L226.275 385.278C210.654 369.657 210.654 344.33 226.275 328.709L502.046 52.9376L487.904 38.7951C468.378 19.2689 436.719 19.2689 417.193 38.7951L148.493 307.496Z" fill="#35605A"/>
<path d="M626.497 545.084C587.444 584.136 524.128 584.136 485.075 545.084L326.072 386.08C310.451 370.459 310.451 345.133 326.072 329.512L485.076 170.508C524.128 131.456 587.444 131.456 626.497 170.508L785.5 329.512C801.121 345.133 801.121 370.459 785.5 386.08L626.497 545.084Z" fill="#35605A"/>
</svg>
